<svg id="svg14" xmlns="http://www.w3.org/2000/svg" viewBox="0 0 272.94 98.75"><defs><style>.cls-1{fill:#4285f4;}.cls-2{fill:#34a853;}.cls-3{fill:#ea4335;}.cls-4{fill:#fbbc05;}</style></defs><title>Google_logo</title><path id="path6" class="cls-1" d="M233,28.78V73.09c0,18.22-10.75,25.66-23.46,25.66a23.49,23.49,0,0,1-21.87-14.54l9.43-3.93c1.68,4,5.8,8.76,12.43,8.76,8.13,0,13.17-5,13.17-14.46V71h-.37a16.83,16.83,0,0,1-13,5.61c-12.34,0-23.64-10.75-23.64-24.58S197,27.29,209.3,27.29a17.13,17.13,0,0,1,13,5.52h.37v-4H233Zm-9.53,23.28c0-8.69-5.79-15-13.17-15s-13.74,6.35-13.74,15,6.26,14.86,13.74,14.86S223.44,60.66,223.44,52.06Z" transform="translate(-27.06 0)"/><path id="path8" class="cls-2" d="M249.93,2.81V75.13H239.36V2.81Z" transform="translate(-27.06 0)"/><path id="path10" class="cls-3" d="M291.12,60.09l8.41,5.61A24.54,24.54,0,0,1,279,76.64c-14,0-24.49-10.84-24.49-24.68,0-14.68,10.56-24.68,23.28-24.68S296.83,37.47,298.88,43l1.12,2.8L267,59.45c2.53,5,6.45,7.47,12,7.47s9.35-2.71,12.15-6.83Zm-25.89-8.88,22-9.15c-1.21-3.09-4.86-5.23-9.15-5.23A13.53,13.53,0,0,0,265.23,51.21Z" transform="translate(-27.06 0)"/><path id="path12" class="cls-1" d="M65.92,45.55V35.08H101.2a34.2,34.2,0,0,1,.52,6.32c0,7.85-2.14,17.57-9.06,24.49-6.73,7-15.33,10.75-26.73,10.75-21.11,0-38.87-17.21-38.87-38.32S44.82,0,65.93,0A36.5,36.5,0,0,1,92.19,10.56L84.8,18a26.67,26.67,0,0,0-18.88-7.48A27.49,27.49,0,0,0,38.44,38.32,27.49,27.49,0,0,0,65.92,66.17c10,0,15.7-4,19.35-7.67,3-3,4.91-7.19,5.67-13Z" transform="translate(-27.06 0)"/><path id="path6-2" data-name="path6" class="cls-4" d="M180.67,28.78V73.09c0,18.22-10.74,25.66-23.45,25.66a23.49,23.49,0,0,1-21.87-14.54l9.43-3.93c1.68,4,5.8,8.76,12.43,8.76,8.13,0,13.17-5,13.17-14.46V71H170a16.79,16.79,0,0,1-13,5.61c-12.34,0-23.64-10.75-23.64-24.58S144.67,27.29,157,27.29a17.1,17.1,0,0,1,13,5.52h.38v-4h10.29Zm-9.52,23.28c0-8.69-5.8-15-13.17-15s-13.74,6.35-13.74,15S150.5,66.92,158,66.92,171.15,60.66,171.15,52.06Z" transform="translate(-27.06 0)"/><path id="path8-2" data-name="path8" class="cls-3" d="M122.83,27.29V75.13H112.26V27.29Z" transform="translate(-27.06 0)"/><path id="path8-3" data-name="path8" class="cls-3" d="M122.83,11.64v10.5H112.26V11.64Z" transform="translate(-27.06 0)"/></svg>